<?xml version="1.0" encoding="utf-8"?>
<svg version="1.1" id="Layer_1" xmlns="http://www.w3.org/2000/svg" xmlns:xlink="http://www.w3.org/1999/xlink" x="0px" y="0px"
	 viewBox="0 0 841.89 595.28" style="enable-background:new 0 0 841.89 595.28;" xml:space="preserve">
<style type="text/css">
	.st0{fill:none;stroke:#ffffff;stroke-width:5;stroke-linecap:round;stroke-linejoin:round;stroke-miterlimit:10;}
</style>
<path class="st0" d="M439.65,237.17c0,0-9.07,3.97-11.91,13.8c-2.83,9.83,5.86,10.02,17.48,0.66c11.62-9.35,2.98-16.58-4.54-16.72
	c-7.51-0.14,24.66-7.04,49.89-25.49c25.23-18.45,22.96-28.65,18.43-25.25c-4.54,3.4-51.74,75.97-39.48,69.73
	c12.26-6.24,43.59-27.5,43.3-20.83c-0.28,6.66-6.85,19.42,10.54,12.8c17.39-6.61,47.15-26.27,59.62-48.66s-3.87-4.63-8.03,2.74
	c-2.89,5.13-27.21,41.76-4.91,38.36c22.3-3.4,39.31-20.41,39.31-20.41s-11.34,18.14,4.72,13.42s35.91-17.95,35.91-17.95
	s-7.56,17.01,26.27,13.23s92.98-12.85,113.01-7.37s-0.76,14.74-1.32,14.93"/>
<path class="st0" d="M466.48,212.23c0,0,21.83-38.83,0-35.43s-61.8,39.69-98.36,79.37s-66.9,91.56-66.9,91.56
	s42.52-152.5,41.39-152.5s-35.15,54.99-45.07,61.23c-9.92,6.24,28.52-13.41,72.85,12.47c42.24,24.66,25.51,66.61,17.57,69.45"/>
<path class="st0" d="M295.27,243.98c0,0,3.69-40.82-50.17-33.73s-78.71,38.65-74.55,45.92c4.89,8.55,49.13-0.09,78.8,4.98
	c23.41,4.01,33.45,20.25,26.36,41.79c-7.09,21.54-38.67,90.14-43.43,89.86s5.16-40.25-42.74-66.61S39.3,313.43,47.52,326.75
	s75.55-10.48,340.72-47.06c263.06-36.28,335.62-34.58,335.62-36.85"/>
</svg>
